<svg xmlns="http://www.w3.org/2000/svg" version="1.1" xmlnsXlink="http://www.w3.org/1999/xlink" xmlnsSvgjs="http://svgjs.dev/svgjs" width="1000" height="181" viewBox="0 0 1000 181"><g transform="matrix(1,0,0,1,-0.6060515227425185,-0.5025031040477046)"><svg viewBox="0 0 396 72" data-background-color="#ffffff" preserveAspectRatio="xMidYMid meet" height="181" width="1000" xmlns="http://www.w3.org/2000/svg" xmlnsXlink="http://www.w3.org/1999/xlink"><g id="tight-bounds" transform="matrix(1,0,0,1,0.23999640300604597,0.19989073752174136)"><svg viewBox="0 0 395.52 71.60021852495655" height="71.60021852495655" width="395.52"><g><svg viewBox="0 0 395.52 71.60021852495655" height="71.60021852495655" width="395.52"><g><svg viewBox="0 0 395.52 71.60021852495655" height="71.60021852495655" width="395.52"><g id="textblocktransform"><svg viewBox="0 0 395.52 71.60021852495655" height="71.60021852495655" width="395.52" id="textblock"><g><svg viewBox="0 0 395.52 71.60021852495655" height="71.60021852495655" width="395.52"><g transform="matrix(1,0,0,1,0,0)"><svg width="395.52" viewBox="2 -36 201.33999633789062 36.45000076293945" height="71.60021852495655" data-palette-color="#2637ed"><path d="M27.35 0L27.35 0 6.15 0Q3.7 0 2.85-0.35 2-0.7 2-1.45L2-1.45 2-33.1Q2-34.4 3.18-34.95 4.35-35.5 7.4-35.5L7.4-35.5 27.5-35.5Q28.55-35.5 28.55-32.02 28.55-28.55 28.1-26.73 27.65-24.9 26.9-24.9L26.9-24.9Q23.65-24.9 15.95-25.55L15.95-25.55 15.95-22.2Q23.35-22.5 25.6-22.5L25.6-22.5Q26.95-22.5 26.95-19.35 26.95-16.2 26.43-14.58 25.9-12.95 25-12.95L25-12.95 15.95-13.15 15.95-9.95Q24.65-10.6 27.95-10.6L27.95-10.6Q29-10.6 29-7.1 29-3.6 28.55-1.8 28.1 0 27.35 0ZM46.45-1.45Q46.45-0.8 43.37-0.4 40.3 0 37.25 0 34.2 0 33.35-0.35 32.5-0.7 32.5-1.45L32.5-1.45 32.5-32.15Q32.5-33.4 35.37-34.45 38.25-35.5 41.9-35.5L41.9-35.5Q43.2-35.5 43.85-35.4L43.85-35.4Q45.55-35.15 46.25-33.25L46.25-33.25 51.05-20.35 51.25-20.35 51.25-32.15Q51.25-33.4 54.1-34.45 56.95-35.5 60.6-35.5L60.6-35.5Q63.75-35.5 64.6-34.3L64.6-34.3Q65.2-33.45 65.2-32.75L65.2-32.75 65.2-1.45Q65.2-0.8 62.12-0.4 59.05 0 55.37 0 51.7 0 51.35-0.95L51.35-0.95 46.7-13.25 46.45-13.25 46.45-1.45ZM94.25-0.38Q92.25 0.1 90.17 0.28 88.1 0.45 86.12 0.45 84.15 0.45 83.07 0.35 82 0.25 80.25-0.15 78.5-0.55 77.05-1.25 75.6-1.95 73.97-3.3 72.35-4.65 71.25-6.5L71.25-6.5Q68.7-10.8 68.7-17.6L68.7-17.6Q68.7-22.15 70.12-25.65 71.55-29.15 73.57-31.05 75.6-32.95 78.2-34.1L78.2-34.1Q82.4-36 86.65-36L86.65-36Q92.75-36 95.4-35L95.4-35Q96.6-34.55 97.55-33.6 98.5-32.65 98.5-30.85 98.5-29.05 97.62-26.3 96.75-23.55 95.1-23.55L95.1-23.55Q94.6-23.55 91.4-24.35 88.2-25.15 87.05-25.15L87.05-25.15Q85.3-25.15 84.07-23.2 82.85-21.25 82.85-17.65 82.85-14.05 83.92-12.05 85-10.05 86.75-10.05L86.75-10.05Q88-10.05 91.27-11.08 94.55-12.1 95.1-12.1L95.1-12.1Q96.65-12.1 97.52-9.25 98.4-6.4 98.4-4.65 98.4-2.9 97.32-1.88 96.25-0.85 94.25-0.38ZM118.89 0.45L118.89 0.45Q114.74 0.45 111.77-0.33 108.79-1.1 106.29-3.1L106.29-3.1Q101.24-7.05 101.24-18.25L101.24-18.25Q101.24-22.95 102.62-26.45 103.99-29.95 106.44-32L106.44-32Q111.24-36 118.89-36L118.89-36Q122.84-36 125.77-35.3 128.69-34.6 131.29-32.75L131.29-32.75Q136.54-28.95 136.54-18.25L136.54-18.25Q136.54-8.65 131.79-4.1 127.04 0.45 118.89 0.45ZM117.24-8.13Q117.84-7.4 118.89-7.4 119.94-7.4 120.54-8.13 121.14-8.85 121.54-11.23 121.94-13.6 121.94-17.85 121.94-22.1 121.54-24.4 121.14-26.7 120.54-27.4 119.94-28.1 118.89-28.1 117.84-28.1 117.24-27.4 116.64-26.7 116.24-24.4 115.84-22.1 115.84-17.85 115.84-13.6 116.24-11.23 116.64-8.85 117.24-8.13ZM155.74 0L155.74 0 143.94 0Q141.49 0 140.64-0.35 139.79-0.7 139.79-1.5L139.79-1.5 139.79-33.05Q139.79-34.35 140.89-34.93 141.99-35.5 144.69-35.5L144.69-35.5 155.94-35.5Q165.54-35.5 169.19-31.73 172.84-27.95 172.84-18 172.84-8.05 169.04-4.03 165.24 0 155.74 0ZM155.34-28.05L155.34-28.05Q154.14-28.05 153.74-27.85L153.74-27.85 153.74-7.65 155.64-7.45Q157.14-7.45 157.92-9.85 158.69-12.25 158.69-18.15 158.69-24.05 157.89-26.05 157.09-28.05 155.34-28.05ZM201.69 0L201.69 0 180.49 0Q178.04 0 177.19-0.35 176.34-0.7 176.34-1.45L176.34-1.45 176.34-33.1Q176.34-34.4 177.51-34.95 178.69-35.5 181.74-35.5L181.74-35.5 201.84-35.5Q202.89-35.5 202.89-32.02 202.89-28.55 202.44-26.73 201.99-24.9 201.24-24.9L201.24-24.9Q197.99-24.9 190.29-25.55L190.29-25.55 190.29-22.2Q197.69-22.5 199.94-22.5L199.94-22.5Q201.29-22.5 201.29-19.35 201.29-16.2 200.76-14.58 200.24-12.95 199.34-12.95L199.34-12.95 190.29-13.15 190.29-9.95Q198.99-10.6 202.29-10.6L202.29-10.6Q203.34-10.6 203.34-7.1 203.34-3.6 202.89-1.8 202.44 0 201.69 0Z" opacity="1" transform="matrix(1,0,0,1,0,0)" fill="#2637ed" class="undefined-text-0" data-fill-palette-color="primary" id="text-0"></path></svg></g></svg></g></svg></g></svg></g><g></g></svg></g><defs></defs></svg><rect width="395.52" height="71.60021852495655" fill="none" stroke="none" visibility="hidden"></rect></g></svg></g></svg>