<svg xmlns="http://www.w3.org/2000/svg" version="1.1" xmlnsXlink="http://www.w3.org/1999/xlink" xmlnsSvgjs="http://svgjs.dev/svgjs" width="1000" height="1000" viewBox="0 0 1000 1000"><rect width="1000" height="1000" fill="#ffffff"></rect><g transform="matrix(0.7,0,0,0.7,149.57575757575756,282.1265587044535)"><svg viewBox="0 0 396 247" data-background-color="#ffffff" preserveAspectRatio="xMidYMid meet" height="623" width="1000" xmlns="http://www.w3.org/2000/svg" xmlnsXlink="http://www.w3.org/1999/xlink"><g id="tight-bounds" transform="matrix(1,0,0,1,0.2400000000000091,-0.09999999999999432)"><svg viewBox="0 0 395.52 247.2" height="247.2" width="395.52"><g><svg></svg></g><g><svg viewBox="0 0 395.52 247.2" height="247.2" width="395.52"><g transform="matrix(1,0,0,1,75.54432,83.49179555235696)"><svg viewBox="0 0 244.43135999999998 80.21640889528607" height="80.21640889528607" width="244.43135999999998"><g><svg viewBox="0 0 244.43135999999998 80.21640889528607" height="80.21640889528607" width="244.43135999999998"><g><svg viewBox="0 0 244.43135999999998 80.21640889528607" height="80.21640889528607" width="244.43135999999998"><g><svg viewBox="0 0 244.43135999999998 80.21640889528607" height="80.21640889528607" width="244.43135999999998"><g id="textblocktransform"><svg viewBox="0 0 244.43135999999998 80.21640889528607" height="80.21640889528607" width="244.43135999999998" id="textblock"><g><svg viewBox="0 0 244.43135999999998 80.21640889528607" height="80.21640889528607" width="244.43135999999998"><g transform="matrix(1,0,0,1,0,0)"><svg width="244.43135999999998" viewBox="5.400000095367432 -41.54999923706055 138.94000244140625 45.599998474121094" height="80.21640889528607" data-palette-color="#1e55b3"><path d="M25.7-21.3L25.7-21.3Q27.35-21.3 28.28-20.4 29.2-19.5 29.2-17.9L29.2-17.9Q29.2-17.5 29.13-17.07 29.05-16.65 28.95-16.35L28.95-16.35Q28.3-16.45 27.5-16.53 26.7-16.6 25.6-16.6L25.6-16.6Q23.45-16.6 21.25-16.23 19.05-15.85 17.05-15.6L17.05-15.6Q15.9-12.95 14.95-10.48 14-8 13.33-5.95 12.65-3.9 12.28-2.4 11.9-0.9 11.85-0.15L11.85-0.15Q15.9-1 20.03-1.6 24.15-2.2 28.7-2.5L28.7-2.5Q29.25-1.65 29.63-0.65 30 0.35 30 1.5L30 1.5Q30 1.8 30 2.15 30 2.5 29.9 2.85L29.9 2.85Q28.5 2.8 26.95 2.78 25.4 2.75 22.9 2.75L22.9 2.75Q21.25 2.75 19.78 2.83 18.3 2.9 16.8 3.05 15.3 3.2 13.63 3.45 11.95 3.7 9.85 4.05L9.85 4.05Q7.55 3.15 5.4-0.35L5.4-0.35Q6.25-2.15 7.78-5.83 9.3-9.5 11.65-15.65L11.65-15.65Q9.4-16.35 8.7-18.15L8.7-18.15Q8.95-18.4 10.15-18.78 11.35-19.15 13.1-19.55L13.1-19.55Q13.85-21.5 14.38-22.95 14.9-24.4 15.3-25.68 15.7-26.95 16.03-28.18 16.35-29.4 16.65-30.85L16.65-30.85Q14.9-30.95 13.9-31.83 12.9-32.7 12.9-34.1L12.9-34.1Q12.9-34.5 13.03-35.05 13.15-35.6 13.3-36L13.3-36Q14.3-35.85 15.23-35.8 16.15-35.75 17.65-35.75L17.65-35.75Q20.8-35.75 23.55-35.93 26.3-36.1 28.53-36.3 30.75-36.5 32.35-36.68 33.95-36.85 34.8-36.85L34.8-36.85Q35.95-36.85 36.85-35.65 37.75-34.45 38.2-32.25L38.2-32.25Q36.65-32.4 35.68-32.45 34.7-32.5 33.95-32.5L33.95-32.5Q31.2-32.5 28.93-32.23 26.65-31.95 24.55-31.65L24.55-31.65Q24.25-31.2 23.88-30.5 23.5-29.8 22.9-28.55 22.3-27.3 21.43-25.4 20.55-23.5 19.3-20.65L19.3-20.65Q21.2-20.95 22.88-21.13 24.55-21.3 25.7-21.3ZM42.85-24.25L42.85-24.25Q44.15-23.85 45.3-22.48 46.45-21.1 47-19.45L47-19.45Q46.45-18.1 45.3-16.2 44.15-14.3 43-12.33 41.85-10.35 40.92-8.58 40-6.8 39.85-5.65L39.85-5.65Q40.65-6.5 41.62-7.63 42.6-8.75 43.52-9.88 44.45-11 45.25-11.93 46.05-12.85 46.5-13.3L46.5-13.3Q47.45-14.3 48.75-15.63 50.05-16.95 51.47-18.13 52.9-19.3 54.35-20.13 55.8-20.95 57-20.95L57-20.95Q58.3-20.95 59.17-20.08 60.05-19.2 60.55-18.25L60.55-18.25Q60.55-18.15 60.17-17.98 59.8-17.8 59.1-17L59.1-17Q58.4-16.1 57.52-14.53 56.65-12.95 55.82-11.13 55-9.3 54.45-7.4 53.9-5.5 53.9-3.95L53.9-3.95Q53.9-2.7 54.22-2.35 54.55-2 55.15-2L55.15-2Q55.7-2 56.3-2.25 56.9-2.5 57.25-2.5L57.25-2.5Q57.45-2.4 57.57-2.08 57.7-1.75 57.7-1.5L57.7-1.5Q57.3-1.15 56.75-0.8 56.2-0.45 55.6-0.15 55 0.15 54.42 0.35 53.85 0.55 53.4 0.55L53.4 0.55Q51.95 0.55 51.02 0.13 50.1-0.3 49.57-1 49.05-1.7 48.85-2.68 48.65-3.65 48.65-4.75L48.65-4.75Q48.65-5.35 48.75-6.1 48.85-6.85 49.15-7.88 49.45-8.9 50-10.33 50.55-11.75 51.4-13.75L51.4-13.75Q51.3-13.75 50.05-13.05 48.8-12.35 47.35-10.9L47.35-10.9Q45-8.65 43.12-6.45 41.25-4.25 39.3-1.55L39.3-1.55Q38.2 0 37.37 1.07 36.55 2.15 35.95 2.5L35.95 2.5Q34.9 1.9 34.4 0.83 33.9-0.25 33.65-1.4L33.65-1.4Q33.65-2.35 33.92-3.8 34.2-5.25 34.67-7.03 35.15-8.8 35.85-10.75 36.55-12.7 37.4-14.65L37.4-14.65Q39.3-19.05 40.87-21.55 42.45-24.05 42.85-24.25ZM62.05-8.8L62.05-8.8Q62.05-11.65 63.22-14.33 64.4-17 66.32-19.07 68.25-21.15 70.72-22.43 73.2-23.7 75.84-23.7L75.84-23.7Q78.45-23.7 79.84-22.4 81.25-21.1 81.25-18.7L81.25-18.7Q81.25-17.55 80.92-16.48 80.59-15.4 80.07-14.55 79.55-13.7 78.84-13.18 78.15-12.65 77.45-12.65L77.45-12.65Q76.84-12.65 76.22-13.03 75.59-13.4 75.2-14L75.2-14Q78.55-17.05 78.55-19.55L78.55-19.55Q78.55-21 77.4-21L77.4-21Q76.4-21 74.9-20.05 73.4-19.1 72-17.55L72-17.55Q69.84-15.15 68.72-12.23 67.59-9.3 67.59-6.1L67.59-6.1Q67.59-2.05 69.4-1.25L69.4-1.25Q70.15-1.35 71.15-1.7 72.15-2.05 73.3-2.63 74.45-3.2 75.67-3.95 76.9-4.7 78.05-5.55L78.05-5.55Q78.25-5.4 78.4-5.1 78.55-4.8 78.55-4.55L78.55-4.55Q77.7-3.5 76.59-2.5 75.5-1.5 74.3-0.68 73.09 0.15 71.97 0.73 70.84 1.3 70 1.45L70 1.45Q68.34 1.3 66.9 0.43 65.45-0.45 64.37-1.85 63.3-3.25 62.67-5.05 62.05-6.85 62.05-8.8ZM88.64 1.75L88.64 1.75Q85.79 1.45 84.09-0.75 82.39-2.95 82.39-6.35L82.39-6.35Q82.39-8.35 82.99-10.5 83.59-12.65 84.69-14.68 85.79-16.7 87.29-18.5 88.79-20.3 90.54-21.6L90.54-21.6Q93.29-23.65 95.69-23.65L95.69-23.65Q97.29-22.8 98.84-20.1L98.84-20.1Q99.09-20.1 99.29-20.13 99.49-20.15 99.74-20.15L99.74-20.15Q102.39-20.15 102.39-15.45L102.39-15.45Q102.39-12.3 101.37-9.47 100.34-6.65 98.52-4.35 96.69-2.05 94.17-0.48 91.64 1.1 88.64 1.75ZM91.19-14L91.19-14Q90.34-12.85 89.59-11.5 88.84-10.15 88.29-8.78 87.74-7.4 87.44-6.13 87.14-4.85 87.14-3.85L87.14-3.85Q87.14-2.65 87.54-1.55 87.94-0.45 88.44-0.3L88.44-0.3Q90.69-0.8 92.57-2.18 94.44-3.55 95.82-5.6 97.19-7.65 97.97-10.25 98.74-12.85 98.74-15.8L98.74-15.8Q98.74-17.1 98.59-17.85 98.44-18.6 98.09-19.15L98.09-19.15Q95.89-18.5 94.17-17.05 92.44-15.6 91.19-14ZM115.69-23.35L115.69-23.35Q116.69-23.35 117.99-22.75 119.29-22.15 120.29-21.2L120.29-21.2Q120.04-23.2 119.67-24.98 119.29-26.75 118.57-28.65 117.84-30.55 116.64-32.8 115.44-35.05 113.64-37.95L113.64-37.95Q113.79-38.4 114.32-39 114.84-39.6 115.52-40.13 116.19-40.65 116.92-41.05 117.64-41.45 118.29-41.55L118.29-41.55Q119.69-40 120.94-37.68 122.19-35.35 123.14-32.68 124.09-30 124.62-27.15 125.14-24.3 125.14-21.7L125.14-21.7Q125.14-19.1 124.57-16.35 123.99-13.6 122.97-10.98 121.94-8.35 120.59-6 119.24-3.65 117.67-1.8 116.09 0.05 114.39 1.23 112.69 2.4 110.99 2.7L110.99 2.7Q107.54 2.3 105.72 0.48 103.89-1.35 103.89-4.55L103.89-4.55Q103.89-6.25 104.42-8.25 104.94-10.25 105.82-12.23 106.69-14.2 107.87-16.07 109.04-17.95 110.37-19.45 111.69-20.95 113.04-22 114.39-23.05 115.69-23.35ZM110.59 0.7L110.59 0.7Q112.34 0.1 114.09-1.95 115.84-4 117.24-6.78 118.64-9.55 119.52-12.73 120.39-15.9 120.39-18.85L120.39-18.85Q120.39-19.7 120.39-19.9 120.39-20.1 120.34-20.3L120.34-20.3Q119.14-19.8 117.79-18.6 116.44-17.4 115.09-15.83 113.74-14.25 112.54-12.4 111.34-10.55 110.39-8.7 109.44-6.85 108.89-5.15 108.34-3.45 108.34-2.15L108.34-2.15Q108.34 0.35 110.59 0.7ZM144.34-20.7L144.34-20.7Q144.14-17.6 143.24-15.38 142.34-13.15 140.66-11.48 138.99-9.8 136.59-8.45 134.19-7.1 130.99-5.85L130.99-5.85Q130.99-5.55 130.96-5.23 130.94-4.9 130.94-4.55L130.94-4.55Q130.94-3.9 131.04-3.2 131.14-2.5 131.39-1.9 131.64-1.3 132.09-0.93 132.54-0.55 133.24-0.55L133.24-0.55Q134.59-0.55 135.89-1.15 137.19-1.75 138.36-2.63 139.54-3.5 140.56-4.53 141.59-5.55 142.39-6.4L142.39-6.4Q142.89-5.95 143.24-5.55L143.24-5.55Q140.99-2.55 138.31-0.58 135.64 1.4 133.24 1.95L133.24 1.95Q129.79 1.55 127.86-0.58 125.94-2.7 125.94-5.7L125.94-5.7Q125.94-7.75 126.51-9.88 127.09-12 128.11-13.98 129.14-15.95 130.51-17.7 131.89-19.45 133.46-20.75 135.04-22.05 136.71-22.8 138.39-23.55 140.04-23.55L140.04-23.55Q142.34-23.25 144.34-20.7ZM140.89-19.05L140.89-19.05Q139.54-18.85 138.09-17.95 136.64-17.05 135.36-15.55 134.09-14.05 133.04-12.05 131.99-10.05 131.39-7.75L131.39-7.75Q135.39-9.75 138.04-12.68 140.69-15.6 140.89-19.05Z" opacity="1" transform="matrix(1,0,0,1,0,0)" fill="#1e55b3" class="undefined-text-0" data-fill-palette-color="primary" id="text-0"></path></svg></g></svg></g></svg></g></svg></g></svg></g></svg></g></svg></g><path d="M182.565 77.492L182.565 22.415 384.934 22.415 384.934 224.785 182.565 224.785 182.565 169.708 189.799 169.708 189.799 217.551 377.7 217.551 377.7 29.649 189.799 29.649 189.799 77.492Z" fill="#1e55b3" stroke="transparent" data-fill-palette-color="primary"></path></svg></g><defs></defs></svg><rect width="395.52" height="247.2" fill="none" stroke="none" visibility="hidden"></rect></g></svg></g></svg>